<svg baseProfile="full" height="320.0px" version="1.1" width="320.0px" xmlns="http://www.w3.org/2000/svg" xmlns:ev="http://www.w3.org/2001/xml-events" xmlns:xlink="http://www.w3.org/1999/xlink"><defs /><path d="M 30.95 49.05 L 27.20 40.00 L 30.95 30.95 L 40.00 27.20 L 49.05 30.95 L 52.80 40.00 L 49.05 49.05 L 40.00 52.80 L 30.95 49.05" fill="none" stroke="#2458ff" stroke-width="2.0" /><circle cx="40.0" cy="40.0" fill="#2458ff" opacity="0.6" r="2" /><path d="M 91.83 35.10 L 91.83 44.90 L 84.90 51.83 L 75.10 51.83 L 68.17 44.90 L 68.17 35.10 L 75.10 28.17 L 84.90 28.17 L 91.83 35.10" fill="none" stroke="#2458ff" stroke-width="2.0" /><circle cx="80.0" cy="40.0" fill="#2458ff" opacity="0.6" r="2" /><path d="M 131.83 35.10 L 131.83 44.90 L 124.90 51.83 L 115.10 51.83 L 108.17 44.90 L 108.17 35.10 L 115.10 28.17 L 124.90 28.17 L 131.83 35.10" fill="none" stroke="#2458ff" stroke-width="2.0" /><circle cx="120.0" cy="40.0" fill="#2458ff" opacity="0.6" r="2" /><path d="M 144.00 40.00 L 150.40 49.60 L 160.00 56.00 L 169.60 49.60 L 176.00 40.00 L 169.60 30.40 L 160.00 24.00 L 150.40 30.40 L 144.00 40.00" fill="none" stroke="#2458ff" stroke-width="2.0" /><circle cx="160.0" cy="40.0" fill="#2458ff" opacity="0.6" r="2" /><path d="M 211.83 35.10 L 211.83 44.90 L 204.90 51.83 L 195.10 51.83 L 188.17 44.90 L 188.17 35.10 L 195.10 28.17 L 204.90 28.17 L 211.83 35.10" fill="none" stroke="#2458ff" stroke-width="2.0" /><circle cx="200.0" cy="40.0" fill="#2458ff" opacity="0.6" r="2" /><path d="M 251.83 35.10 L 251.83 44.90 L 244.90 51.83 L 235.10 51.83 L 228.17 44.90 L 228.17 35.10 L 235.10 28.17 L 244.90 28.17 L 251.83 35.10" fill="none" stroke="#2458ff" stroke-width="2.0" /><circle cx="240.0" cy="40.0" fill="#2458ff" opacity="0.6" r="2" /><path d="M 268.17 44.90 L 268.17 35.10 L 275.10 28.17 L 284.90 28.17 L 291.83 35.10 L 291.83 44.90 L 284.90 51.83 L 275.10 51.83 L 268.17 44.90" fill="none" stroke="#2458ff" stroke-width="2.0" /><circle cx="280.0" cy="40.0" fill="#2458ff" opacity="0.6" r="2" /><path d="M 51.83 75.10 L 51.83 84.90 L 44.90 91.83 L 35.10 91.83 L 28.17 84.90 L 28.17 75.10 L 35.10 68.17 L 44.90 68.17 L 51.83 75.10" fill="none" stroke="#2458ff" stroke-width="2.0" /><circle cx="40.0" cy="80.0" fill="#2458ff" opacity="0.6" r="2" /><path d="M 67.20 80.00 L 70.95 70.95 L 80.00 67.20 L 89.05 70.95 L 92.80 80.00 L 89.05 89.05 L 80.00 92.80 L 70.95 89.05 L 67.20 80.00" fill="none" stroke="#2458ff" stroke-width="2.0" /><circle cx="80.0" cy="80.0" fill="#2458ff" opacity="0.6" r="2" /><path d="M 136.00 96.00 L 136.00 64.00 L 104.00 64.00 L 104.00 96.00 L 136.00 96.00" fill="none" stroke="#2458ff" stroke-width="2.0" /><circle cx="120.0" cy="80.0" fill="#2458ff" opacity="0.6" r="2" /><path d="M 155.10 68.17 L 164.90 68.17 L 171.83 75.10 L 171.83 84.90 L 164.90 91.83 L 155.10 91.83 L 148.17 84.90 L 148.17 75.10 L 155.10 68.17" fill="none" stroke="#2458ff" stroke-width="2.0" /><circle cx="160.0" cy="80.0" fill="#2458ff" opacity="0.6" r="2" /><path d="M 216.00 96.00 L 216.00 64.00 L 184.00 64.00 L 184.00 96.00 L 216.00 96.00" fill="none" stroke="#2458ff" stroke-width="2.0" /><circle cx="200.0" cy="80.0" fill="#2458ff" opacity="0.6" r="2" /><path d="M 240.00 64.00 L 230.40 70.40 L 224.00 80.00 L 230.40 89.60 L 240.00 96.00 L 249.60 89.60 L 256.00 80.00 L 249.60 70.40 L 240.00 64.00" fill="none" stroke="#2458ff" stroke-width="2.0" /><circle cx="240.0" cy="80.0" fill="#2458ff" opacity="0.6" r="2" /><path d="M 291.83 75.10 L 291.83 84.90 L 284.90 91.83 L 275.10 91.83 L 268.17 84.90 L 268.17 75.10 L 275.10 68.17 L 284.90 68.17 L 291.83 75.10" fill="none" stroke="#2458ff" stroke-width="2.0" /><circle cx="280.0" cy="80.0" fill="#2458ff" opacity="0.6" r="2" /><path d="M 51.83 115.10 L 51.83 124.90 L 44.90 131.83 L 35.10 131.83 L 28.17 124.90 L 28.17 115.10 L 35.10 108.17 L 44.90 108.17 L 51.83 115.10" fill="none" stroke="#2458ff" stroke-width="2.0" /><circle cx="40.0" cy="120.0" fill="#2458ff" opacity="0.6" r="2" /><path d="M 80.00 136.00 L 89.60 129.60 L 96.00 120.00 L 89.60 110.40 L 80.00 104.00 L 70.40 110.40 L 64.00 120.00 L 70.40 129.60 L 80.00 136.00" fill="none" stroke="#2458ff" stroke-width="2.0" /><circle cx="80.0" cy="120.0" fill="#2458ff" opacity="0.6" r="2" /><path d="M 110.95 129.05 L 107.20 120.00 L 110.95 110.95 L 120.00 107.20 L 129.05 110.95 L 132.80 120.00 L 129.05 129.05 L 120.00 132.80 L 110.95 129.05" fill="none" stroke="#2458ff" stroke-width="2.0" /><circle cx="120.0" cy="120.0" fill="#2458ff" opacity="0.6" r="2" /><path d="M 144.00 120.00 L 150.40 129.60 L 160.00 136.00 L 169.60 129.60 L 176.00 120.00 L 169.60 110.40 L 160.00 104.00 L 150.40 110.40 L 144.00 120.00" fill="none" stroke="#2458ff" stroke-width="2.0" /><circle cx="160.0" cy="120.0" fill="#2458ff" opacity="0.6" r="2" /><path d="M 188.17 124.90 L 188.17 115.10 L 195.10 108.17 L 204.90 108.17 L 211.83 115.10 L 211.83 124.90 L 204.90 131.83 L 195.10 131.83 L 188.17 124.90" fill="none" stroke="#2458ff" stroke-width="2.0" /><circle cx="200.0" cy="120.0" fill="#2458ff" opacity="0.6" r="2" /><path d="M 256.00 120.00 L 249.60 129.60 L 240.00 136.00 L 230.40 129.60 L 224.00 120.00 L 230.40 110.40 L 240.00 104.00 L 249.60 110.40 L 256.00 120.00" fill="none" stroke="#2458ff" stroke-width="2.0" /><circle cx="240.0" cy="120.0" fill="#2458ff" opacity="0.6" r="2" /><path d="M 291.83 115.10 L 291.83 124.90 L 284.90 131.83 L 275.10 131.83 L 268.17 124.90 L 268.17 115.10 L 275.10 108.17 L 284.90 108.17 L 291.83 115.10" fill="none" stroke="#2458ff" stroke-width="2.0" /><circle cx="280.0" cy="120.0" fill="#2458ff" opacity="0.6" r="2" /><path d="M 49.05 150.95 L 52.80 160.00 L 49.05 169.05 L 40.00 172.80 L 30.95 169.05 L 27.20 160.00 L 30.95 150.95 L 40.00 147.20 L 49.05 150.95" fill="none" stroke="#2458ff" stroke-width="2.0" /><circle cx="40.0" cy="160.0" fill="#2458ff" opacity="0.6" r="2" /><path d="M 96.00 160.00 L 89.60 169.60 L 80.00 176.00 L 70.40 169.60 L 64.00 160.00 L 70.40 150.40 L 80.00 144.00 L 89.60 150.40 L 96.00 160.00" fill="none" stroke="#2458ff" stroke-width="2.0" /><circle cx="80.0" cy="160.0" fill="#2458ff" opacity="0.6" r="2" /><path d="M 131.83 155.10 L 131.83 164.90 L 124.90 171.83 L 115.10 171.83 L 108.17 164.90 L 108.17 155.10 L 115.10 148.17 L 124.90 148.17 L 131.83 155.10" fill="none" stroke="#2458ff" stroke-width="2.0" /><circle cx="120.0" cy="160.0" fill="#2458ff" opacity="0.6" r="2" /><path d="M 171.83 155.10 L 171.83 164.90 L 164.90 171.83 L 155.10 171.83 L 148.17 164.90 L 148.17 155.10 L 155.10 148.17 L 164.90 148.17 L 171.83 155.10" fill="none" stroke="#2458ff" stroke-width="2.0" /><circle cx="160.0" cy="160.0" fill="#2458ff" opacity="0.6" r="2" /><path d="M 211.83 155.10 L 211.83 164.90 L 204.90 171.83 L 195.10 171.83 L 188.17 164.90 L 188.17 155.10 L 195.10 148.17 L 204.90 148.17 L 211.83 155.10" fill="none" stroke="#2458ff" stroke-width="2.0" /><circle cx="200.0" cy="160.0" fill="#2458ff" opacity="0.6" r="2" /><path d="M 240.00 176.00 L 249.60 169.60 L 256.00 160.00 L 249.60 150.40 L 240.00 144.00 L 230.40 150.40 L 224.00 160.00 L 230.40 169.60 L 240.00 176.00" fill="none" stroke="#2458ff" stroke-width="2.0" /><circle cx="240.0" cy="160.0" fill="#2458ff" opacity="0.6" r="2" /><path d="M 51.83 195.10 L 51.83 204.90 L 44.90 211.83 L 35.10 211.83 L 28.17 204.90 L 28.17 195.10 L 35.10 188.17 L 44.90 188.17 L 51.83 195.10" fill="none" stroke="#2458ff" stroke-width="2.0" /><circle cx="40.0" cy="200.0" fill="#2458ff" opacity="0.6" r="2" /><path d="M 80.00 216.00 L 89.60 209.60 L 96.00 200.00 L 89.60 190.40 L 80.00 184.00 L 70.40 190.40 L 64.00 200.00 L 70.40 209.60 L 80.00 216.00" fill="none" stroke="#2458ff" stroke-width="2.0" /><circle cx="80.0" cy="200.0" fill="#2458ff" opacity="0.6" r="2" /><path d="M 120.00 184.00 L 110.40 190.40 L 104.00 200.00 L 110.40 209.60 L 120.00 216.00 L 129.60 209.60 L 136.00 200.00 L 129.60 190.40 L 120.00 184.00" fill="none" stroke="#2458ff" stroke-width="2.0" /><circle cx="120.0" cy="200.0" fill="#2458ff" opacity="0.6" r="2" /><path d="M 171.83 195.10 L 171.83 204.90 L 164.90 211.83 L 155.10 211.83 L 148.17 204.90 L 148.17 195.10 L 155.10 188.17 L 164.90 188.17 L 171.83 195.10" fill="none" stroke="#2458ff" stroke-width="2.0" /><circle cx="160.0" cy="200.0" fill="#2458ff" opacity="0.6" r="2" /><path d="M 187.20 200.00 L 190.95 190.95 L 200.00 187.20 L 209.05 190.95 L 212.80 200.00 L 209.05 209.05 L 200.00 212.80 L 190.95 209.05 L 187.20 200.00" fill="none" stroke="#2458ff" stroke-width="2.0" /><circle cx="200.0" cy="200.0" fill="#2458ff" opacity="0.6" r="2" /><path d="M 256.00 200.00 L 249.60 209.60 L 240.00 216.00 L 230.40 209.60 L 224.00 200.00 L 230.40 190.40 L 240.00 184.00 L 249.60 190.40 L 256.00 200.00" fill="none" stroke="#2458ff" stroke-width="2.0" /><circle cx="240.0" cy="200.0" fill="#2458ff" opacity="0.6" r="2" /><path d="M 291.83 195.10 L 291.83 204.90 L 284.90 211.83 L 275.10 211.83 L 268.17 204.90 L 268.17 195.10 L 275.10 188.17 L 284.90 188.17 L 291.83 195.10" fill="none" stroke="#2458ff" stroke-width="2.0" /><circle cx="280.0" cy="200.0" fill="#2458ff" opacity="0.6" r="2" /><path d="M 51.83 235.10 L 51.83 244.90 L 44.90 251.83 L 35.10 251.83 L 28.17 244.90 L 28.17 235.10 L 35.10 228.17 L 44.90 228.17 L 51.83 235.10" fill="none" stroke="#2458ff" stroke-width="2.0" /><circle cx="40.0" cy="240.0" fill="#2458ff" opacity="0.6" r="2" /><path d="M 68.17 244.90 L 68.17 235.10 L 75.10 228.17 L 84.90 228.17 L 91.83 235.10 L 91.83 244.90 L 84.90 251.83 L 75.10 251.83 L 68.17 244.90" fill="none" stroke="#2458ff" stroke-width="2.0" /><circle cx="80.0" cy="240.0" fill="#2458ff" opacity="0.6" r="2" /><path d="M 104.00 240.00 L 110.40 249.60 L 120.00 256.00 L 129.60 249.60 L 136.00 240.00 L 129.60 230.40 L 120.00 224.00 L 110.40 230.40 L 104.00 240.00" fill="none" stroke="#2458ff" stroke-width="2.0" /><circle cx="120.0" cy="240.0" fill="#2458ff" opacity="0.6" r="2" /><path d="M 176.00 256.00 L 176.00 224.00 L 144.00 224.00 L 144.00 256.00 L 176.00 256.00" fill="none" stroke="#2458ff" stroke-width="2.0" /><circle cx="160.0" cy="240.0" fill="#2458ff" opacity="0.6" r="2" /><path d="M 184.00 240.00 L 190.40 249.60 L 200.00 256.00 L 209.60 249.60 L 216.00 240.00 L 209.60 230.40 L 200.00 224.00 L 190.40 230.40 L 184.00 240.00" fill="none" stroke="#2458ff" stroke-width="2.0" /><circle cx="200.0" cy="240.0" fill="#2458ff" opacity="0.6" r="2" /><path d="M 230.95 249.05 L 227.20 240.00 L 230.95 230.95 L 240.00 227.20 L 249.05 230.95 L 252.80 240.00 L 249.05 249.05 L 240.00 252.80 L 230.95 249.05" fill="none" stroke="#2458ff" stroke-width="2.0" /><circle cx="240.0" cy="240.0" fill="#2458ff" opacity="0.6" r="2" /><path d="M 291.83 235.10 L 291.83 244.90 L 284.90 251.83 L 275.10 251.83 L 268.17 244.90 L 268.17 235.10 L 275.10 228.17 L 284.90 228.17 L 291.83 235.10" fill="none" stroke="#2458ff" stroke-width="2.0" /><circle cx="280.0" cy="240.0" fill="#2458ff" opacity="0.6" r="2" /><path d="M 40.00 264.00 L 30.40 270.40 L 24.00 280.00 L 30.40 289.60 L 40.00 296.00 L 49.60 289.60 L 56.00 280.00 L 49.60 270.40 L 40.00 264.00" fill="none" stroke="#2458ff" stroke-width="2.0" /><circle cx="40.0" cy="280.0" fill="#2458ff" opacity="0.6" r="2" /><path d="M 91.83 275.10 L 91.83 284.90 L 84.90 291.83 L 75.10 291.83 L 68.17 284.90 L 68.17 275.10 L 75.10 268.17 L 84.90 268.17 L 91.83 275.10" fill="none" stroke="#2458ff" stroke-width="2.0" /><circle cx="80.0" cy="280.0" fill="#2458ff" opacity="0.6" r="2" /><path d="M 131.83 275.10 L 131.83 284.90 L 124.90 291.83 L 115.10 291.83 L 108.17 284.90 L 108.17 275.10 L 115.10 268.17 L 124.90 268.17 L 131.83 275.10" fill="none" stroke="#2458ff" stroke-width="2.0" /><circle cx="120.0" cy="280.0" fill="#2458ff" opacity="0.6" r="2" /><path d="M 164.90 268.17 L 171.83 275.10 L 171.83 284.90 L 164.90 291.83 L 155.10 291.83 L 148.17 284.90 L 148.17 275.10 L 155.10 268.17 L 164.90 268.17" fill="none" stroke="#2458ff" stroke-width="2.0" /><circle cx="160.0" cy="280.0" fill="#2458ff" opacity="0.6" r="2" /><path d="M 211.83 275.10 L 211.83 284.90 L 204.90 291.83 L 195.10 291.83 L 188.17 284.90 L 188.17 275.10 L 195.10 268.17 L 204.90 268.17 L 211.83 275.10" fill="none" stroke="#2458ff" stroke-width="2.0" /><circle cx="200.0" cy="280.0" fill="#2458ff" opacity="0.6" r="2" /><path d="M 251.83 275.10 L 251.83 284.90 L 244.90 291.83 L 235.10 291.83 L 228.17 284.90 L 228.17 275.10 L 235.10 268.17 L 244.90 268.17 L 251.83 275.10" fill="none" stroke="#2458ff" stroke-width="2.0" /><circle cx="240.0" cy="280.0" fill="#2458ff" opacity="0.6" r="2" /><path d="M 267.20 280.00 L 270.95 270.95 L 280.00 267.20 L 289.05 270.95 L 292.80 280.00 L 289.05 289.05 L 280.00 292.80 L 270.95 289.05 L 267.20 280.00" fill="none" stroke="#2458ff" stroke-width="2.0" /><circle cx="280.0" cy="280.0" fill="#2458ff" opacity="0.6" r="2" /></svg>