<svg baseProfile="full" height="500px" version="1.1" viewBox="0 0 500 500" width="500px" xmlns="http://www.w3.org/2000/svg" xmlns:ev="http://www.w3.org/2001/xml-events" xmlns:xlink="http://www.w3.org/1999/xlink"><defs /><rect fill="#f8f8f8" height="500" width="500" x="0" y="0" /><circle cx="250" cy="250" fill="#ffffff" opacity="0.9" r="15" stroke="#4169e1" stroke-width="2.5" /><circle cx="255" cy="227" fill="#4169e1" opacity="0.8" r="6" stroke="#4169e1" stroke-width="2" /><path d="M 239.5 252.0 Q 224.5 244.5 227.0 230.3" fill="none" opacity="0.8" stroke="#ff6347" stroke-width="2.5" /><circle cx="227.0" cy="230.34936490538902" fill="#dc143c" opacity="0.9" r="3" /><path d="M 239.5 252.0 Q 224.5 244.5 233.0 227.9" fill="none" opacity="0.8" stroke="#ff6347" stroke-width="2.5" /><circle cx="233.02952387243698" cy="227.8518543427733" fill="#dc143c" opacity="0.9" r="3" /><path d="M 239.5 252.0 Q 224.5 244.5 239.5 227.0" fill="none" opacity="0.8" stroke="#ff6347" stroke-width="2.5" /><circle cx="239.5" cy="227.0" fill="#dc143c" opacity="0.9" r="3" /><path d="M 239.5 252.0 Q 224.5 244.5 246.0 227.9" fill="none" opacity="0.8" stroke="#ff6347" stroke-width="2.5" /><circle cx="245.97047612756302" cy="227.8518543427733" fill="#dc143c" opacity="0.9" r="3" /><path d="M 239.5 252.0 Q 224.5 244.5 252.0 230.3" fill="none" opacity="0.8" stroke="#ff6347" stroke-width="2.5" /><circle cx="252.0" cy="230.34936490538902" fill="#dc143c" opacity="0.9" r="3" /><path d="M 274.3 244.0 Q 310.0 250.0 274.3 256.0" fill="none" opacity="0.8" stroke="#4169e1" stroke-width="3" /><circle cx="310.0" cy="250.0" fill="#ff6347" opacity="0.9" r="4" /><path d="M 274.3 256.0 Q 303.1 277.9 268.7 266.6" fill="none" opacity="0.8" stroke="#228b22" stroke-width="3" /><circle cx="303.1273615391926" cy="277.8833903226261" fill="#ff6347" opacity="0.9" r="4" /><path d="M 268.7 266.6 Q 284.1 299.4 258.9 273.4" fill="none" opacity="0.8" stroke="#4169e1" stroke-width="3" /><circle cx="284.08388480386935" cy="299.3790319536194" fill="#ff6347" opacity="0.9" r="4" /><path d="M 258.9 273.4 Q 257.2 309.6 247.0 274.8" fill="none" opacity="0.8" stroke="#228b22" stroke-width="3" /><circle cx="257.2322008153194" cy="309.5625324458832" fill="#ff6347" opacity="0.9" r="4" /><path d="M 247.0 274.8 Q 228.7 306.1 235.8 270.6" fill="none" opacity="0.8" stroke="#4169e1" stroke-width="3" /><circle cx="228.7237067774479" cy="306.1009745611249" fill="#ff6347" opacity="0.9" r="4" /><path d="M 235.8 270.6 Q 205.1 289.8 227.9 261.6" fill="none" opacity="0.8" stroke="#228b22" stroke-width="3" /><circle cx="205.08935510973393" cy="289.78735949444774" fill="#ff6347" opacity="0.9" r="4" /><path d="M 227.9 261.6 Q 191.7 264.4 225.0 250.0" fill="none" opacity="0.8" stroke="#4169e1" stroke-width="3" /><circle cx="191.74349095443688" cy="264.35893985725346" fill="#ff6347" opacity="0.9" r="4" /><path d="M 225.0 250.0 Q 191.7 235.6 227.9 238.4" fill="none" opacity="0.8" stroke="#228b22" stroke-width="3" /><circle cx="191.74349095443688" cy="235.64106014274654" fill="#ff6347" opacity="0.9" r="4" /><path d="M 227.9 238.4 Q 205.1 210.2 235.8 229.4" fill="none" opacity="0.8" stroke="#4169e1" stroke-width="3" /><circle cx="205.08935510973393" cy="210.21264050555232" fill="#ff6347" opacity="0.9" r="4" /><path d="M 235.8 229.4 Q 228.7 193.9 247.0 225.2" fill="none" opacity="0.8" stroke="#228b22" stroke-width="3" /><circle cx="228.72370677744783" cy="193.89902543887513" fill="#ff6347" opacity="0.9" r="4" /><path d="M 247.0 225.2 Q 257.2 190.4 258.9 226.6" fill="none" opacity="0.8" stroke="#4169e1" stroke-width="3" /><circle cx="257.2322008153194" cy="190.43746755411678" fill="#ff6347" opacity="0.9" r="4" /><path d="M 258.9 226.6 Q 284.1 200.6 268.7 233.4" fill="none" opacity="0.8" stroke="#228b22" stroke-width="3" /><circle cx="284.0838848038693" cy="200.6209680463806" fill="#ff6347" opacity="0.9" r="4" /><path d="M 268.7 233.4 Q 303.1 222.1 274.3 244.0" fill="none" opacity="0.8" stroke="#4169e1" stroke-width="3" /><circle cx="303.1273615391926" cy="222.1166096773739" fill="#ff6347" opacity="0.9" r="4" /><path d="M 355.0 250.0 L 360.2 271.9 L 352.2 292.3 L 334.8 306.6 L 318.6 318.6 L 306.6 334.8 L 292.3 352.2 L 271.9 360.2 L 250.0 355.0 L 231.0 345.7 L 212.0 341.8 L 190.0 339.8 L 170.1 329.9 L 160.2 310.0 L 158.2 288.0 L 154.3 269.0 L 145.0 250.0 L 139.8 228.1 L 147.8 207.7 L 165.2 193.4 L 181.4 181.4 L 193.4 165.2 L 207.7 147.8 L 228.1 139.8 L 250.0 145.0 L 269.0 154.3 L 288.0 158.2 L 310.0 160.2 L 329.9 170.1 L 339.8 190.0 L 341.8 212.0 L 345.7 231.0 L 355.0 250.0 Z" fill="none" opacity="0.7" stroke="#ffffff" stroke-width="2" /><path d="M 380.0 250.0 L 384.8 276.8 L 375.3 301.9 L 355.5 320.5 L 336.3 336.3 L 320.5 355.5 L 301.9 375.3 L 276.8 384.8 L 250.0 380.0 L 226.1 370.3 L 202.4 364.9 L 176.1 360.6 L 152.4 347.6 L 139.4 323.9 L 135.1 297.6 L 129.7 273.9 L 120.0 250.0 L 115.2 223.2 L 124.7 198.1 L 144.5 179.5 L 163.7 163.7 L 179.5 144.5 L 198.1 124.7 L 223.2 115.2 L 250.0 120.0 L 273.9 129.7 L 297.6 135.1 L 323.9 139.4 L 347.6 152.4 L 360.6 176.1 L 364.9 202.4 L 370.3 226.1 L 380.0 250.0 Z" fill="none" opacity="0.7" stroke="#ffd700" stroke-width="2" /><path d="M 405.0 250.0 L 409.3 281.7 L 398.4 311.5 L 376.3 334.4 L 353.9 353.9 L 334.4 376.3 L 311.5 398.4 L 281.7 409.3 L 250.0 405.0 L 221.2 394.8 L 192.8 388.0 L 162.2 381.4 L 134.7 365.3 L 118.6 337.8 L 112.0 307.2 L 105.2 278.8 L 95.0 250.0 L 90.7 218.3 L 101.6 188.5 L 123.7 165.6 L 146.1 146.1 L 165.6 123.7 L 188.5 101.6 L 218.3 90.7 L 250.0 95.0 L 278.8 105.2 L 307.2 112.0 L 337.8 118.6 L 365.3 134.7 L 381.4 162.2 L 388.0 192.8 L 394.8 221.2 L 405.0 250.0 Z" fill="none" opacity="0.7" stroke="#ffffff" stroke-width="2" /><path d="M 430.0 250.0 L 433.8 286.6 L 421.5 321.0 L 397.1 348.3 L 371.6 371.6 L 348.3 397.1 L 321.0 421.5 L 286.6 433.8 L 250.0 430.0 L 216.3 419.3 L 183.3 411.1 L 148.3 402.2 L 117.1 382.9 L 97.8 351.7 L 88.9 316.7 L 80.7 283.7 L 70.0 250.0 L 66.2 213.4 L 78.5 179.0 L 102.9 151.7 L 128.4 128.4 L 151.7 102.9 L 179.0 78.5 L 213.4 66.2 L 250.0 70.0 L 283.7 80.7 L 316.7 88.9 L 351.7 97.8 L 382.9 117.1 L 402.2 148.3 L 411.1 183.3 L 419.3 216.3 L 430.0 250.0 Z" fill="none" opacity="0.7" stroke="#ffd700" stroke-width="2" /><path d="M 455.0 250.0 L 458.3 291.4 L 444.6 330.6 L 417.9 362.2 L 389.3 389.3 L 362.2 417.9 L 330.6 444.6 L 291.4 458.3 L 250.0 455.0 L 211.4 443.8 L 173.7 434.2 L 134.4 423.0 L 99.4 400.6 L 77.0 365.6 L 65.8 326.3 L 56.2 288.6 L 45.0 250.0 L 41.7 208.6 L 55.4 169.4 L 82.1 137.8 L 110.7 110.7 L 137.8 82.1 L 169.4 55.4 L 208.6 41.7 L 250.0 45.0 L 288.6 56.2 L 326.3 65.8 L 365.6 77.0 L 400.6 99.4 L 423.0 134.4 L 434.2 173.7 L 443.8 211.4 L 455.0 250.0 Z" fill="none" opacity="0.7" stroke="#ffffff" stroke-width="2" /><path d="M 480.0 250.0 L 482.8 296.3 L 467.7 340.2 L 438.7 376.1 L 407.0 407.0 L 376.1 438.7 L 340.2 467.7 L 296.3 482.8 L 250.0 480.0 L 206.6 468.3 L 164.1 457.3 L 120.5 443.8 L 81.7 418.3 L 56.2 379.5 L 42.7 335.9 L 31.7 293.4 L 20.0 250.0 L 17.2 203.7 L 32.3 159.8 L 61.3 123.9 L 93.0 93.0 L 123.9 61.3 L 159.8 32.3 L 203.7 17.2 L 250.0 20.0 L 293.4 31.7 L 335.9 42.7 L 379.5 56.2 L 418.3 81.7 L 443.8 120.5 L 457.3 164.1 L 468.3 206.6 L 480.0 250.0 Z" fill="none" opacity="0.7" stroke="#ffd700" stroke-width="2" /><path d="M 505.0 250.0 L 507.3 301.2 L 490.8 349.7 L 459.5 390.0 L 424.7 424.7 L 390.0 459.5 L 349.7 490.8 L 301.2 507.3 L 250.0 505.0 L 201.7 492.9 L 154.6 480.4 L 106.6 464.6 L 64.0 436.0 L 35.4 393.4 L 19.6 345.4 L 7.1 298.3 L -5.0 250.0 L -7.3 198.8 L 9.2 150.3 L 40.5 110.0 L 75.3 75.3 L 110.0 40.5 L 150.3 9.2 L 198.8 -7.3 L 250.0 -5.0 L 298.3 7.1 L 345.4 19.6 L 393.4 35.4 L 436.0 64.0 L 464.6 106.6 L 480.4 154.6 L 492.9 201.7 L 505.0 250.0 Z" fill="none" opacity="0.7" stroke="#ffffff" stroke-width="2" /><path d="M 530.0 250.0 L 531.9 306.1 L 513.9 359.3 L 480.3 403.9 L 442.3 442.3 L 403.9 480.3 L 359.3 513.9 L 306.1 531.9 L 250.0 530.0 L 196.8 517.4 L 145.0 503.5 L 92.7 485.4 L 46.4 453.6 L 14.6 407.3 L -3.5 355.0 L -17.4 303.2 L -30.0 250.0 L -31.9 193.9 L -13.9 140.7 L 19.7 96.1 L 57.7 57.7 L 96.1 19.7 L 140.7 -13.9 L 193.9 -31.9 L 250.0 -30.0 L 303.2 -17.4 L 355.0 -3.5 L 407.3 14.6 L 453.6 46.4 L 485.4 92.7 L 503.5 145.0 L 517.4 196.8 L 530.0 250.0 Z" fill="none" opacity="0.7" stroke="#ffd700" stroke-width="2" /><path d="M 555.0 250.0 L 556.4 310.9 L 537.0 368.9 L 501.1 417.7 L 460.0 460.0 L 417.7 501.1 L 368.9 537.0 L 310.9 556.4 L 250.0 555.0 L 191.9 541.9 L 135.4 526.6 L 78.9 506.1 L 28.7 471.3 L -6.1 421.1 L -26.6 364.6 L -41.9 308.1 L -55.0 250.0 L -56.4 189.1 L -37.0 131.1 L -1.1 82.3 L 40.0 40.0 L 82.3 -1.1 L 131.1 -37.0 L 189.1 -56.4 L 250.0 -55.0 L 308.1 -41.9 L 364.6 -26.6 L 421.1 -6.1 L 471.3 28.7 L 506.1 78.9 L 526.6 135.4 L 541.9 191.9 L 555.0 250.0 Z" fill="none" opacity="0.7" stroke="#ffffff" stroke-width="2" /><path d="M 580.0 250.0 L 580.9 315.8 L 560.1 378.5 L 521.8 431.6 L 477.7 477.7 L 431.6 521.8 L 378.5 560.1 L 315.8 580.9 L 250.0 580.0 L 187.1 566.4 L 125.9 549.7 L 65.0 526.9 L 11.0 489.0 L -26.9 435.0 L -49.7 374.1 L -66.4 312.9 L -80.0 250.0 L -80.9 184.2 L -60.1 121.5 L -21.8 68.4 L 22.3 22.3 L 68.4 -21.8 L 121.5 -60.1 L 184.2 -80.9 L 250.0 -80.0 L 312.9 -66.4 L 374.1 -49.7 L 435.0 -26.9 L 489.0 11.0 L 526.9 65.0 L 549.7 125.9 L 566.4 187.1 L 580.0 250.0 Z" fill="none" opacity="0.7" stroke="#ffd700" stroke-width="2" /><path d="M 605.0 250.0 L 605.4 320.7 L 583.2 388.0 L 542.6 445.5 L 495.4 495.4 L 445.5 542.6 L 388.0 583.2 L 320.7 605.4 L 250.0 605.0 L 182.2 590.9 L 116.3 572.8 L 51.1 547.7 L -6.7 506.7 L -47.7 448.9 L -72.8 383.7 L -90.9 317.8 L -105.0 250.0 L -105.4 179.3 L -83.2 112.0 L -42.6 54.5 L 4.6 4.6 L 54.5 -42.6 L 112.0 -83.2 L 179.3 -105.4 L 250.0 -105.0 L 317.8 -90.9 L 383.7 -72.8 L 448.9 -47.7 L 506.7 -6.7 L 547.7 51.1 L 572.8 116.3 L 590.9 182.2 L 605.0 250.0 Z" fill="none" opacity="0.7" stroke="#ffffff" stroke-width="2" /><path d="M 630.0 250.0 L 629.9 325.6 L 606.3 397.6 L 563.4 459.4 L 513.0 513.0 L 459.4 563.4 L 397.6 606.3 L 325.6 629.9 L 250.0 630.0 L 177.3 615.4 L 106.7 595.8 L 37.2 568.5 L -24.4 524.4 L -68.5 462.8 L -95.8 393.3 L -115.4 322.7 L -130.0 250.0 L -129.9 174.4 L -106.3 102.4 L -63.4 40.6 L -13.0 -13.0 L 40.6 -63.4 L 102.4 -106.3 L 174.4 -129.9 L 250.0 -130.0 L 322.7 -115.4 L 393.3 -95.8 L 462.8 -68.5 L 524.4 -24.4 L 568.5 37.2 L 595.8 106.7 L 615.4 177.3 L 630.0 250.0 Z" fill="none" opacity="0.7" stroke="#ffd700" stroke-width="2" /><path d="M 655.0 250.0 L 654.5 330.5 L 629.4 407.2 L 584.2 473.3 L 530.7 530.7 L 473.3 584.2 L 407.2 629.4 L 330.5 654.5 L 250.0 655.0 L 172.4 640.0 L 97.2 618.9 L 23.3 589.3 L -42.0 542.0 L -89.3 476.7 L -118.9 402.8 L -140.0 327.6 L -155.0 250.0 L -154.5 169.5 L -129.4 92.8 L -84.2 26.7 L -30.7 -30.7 L 26.7 -84.2 L 92.8 -129.4 L 169.5 -154.5 L 250.0 -155.0 L 327.6 -140.0 L 402.8 -118.9 L 476.7 -89.3 L 542.0 -42.0 L 589.3 23.3 L 618.9 97.2 L 640.0 172.4 L 655.0 250.0 Z" fill="none" opacity="0.7" stroke="#ffffff" stroke-width="2" /><path d="M 680.0 250.0 L 679.0 335.3 L 652.5 416.7 L 605.0 487.2 L 548.4 548.4 L 487.2 605.0 L 416.7 652.5 L 335.3 679.0 L 250.0 680.0 L 167.6 664.5 L 87.6 642.0 L 9.4 610.1 L -59.7 559.7 L -110.1 490.6 L -142.0 412.4 L -164.5 332.4 L -180.0 250.0 L -179.0 164.7 L -152.5 83.3 L -105.0 12.8 L -48.4 -48.4 L 12.8 -105.0 L 83.3 -152.5 L 164.7 -179.0 L 250.0 -180.0 L 332.4 -164.5 L 412.4 -142.0 L 490.6 -110.1 L 559.7 -59.7 L 610.1 9.4 L 642.0 87.6 L 664.5 167.6 L 680.0 250.0 Z" fill="none" opacity="0.7" stroke="#ffd700" stroke-width="2" /><path d="M 705.0 250.0 L 703.5 340.2 L 675.6 426.3 L 625.8 501.1 L 566.1 566.1 L 501.1 625.8 L 426.3 675.6 L 340.2 703.5 L 250.0 705.0 L 162.7 689.0 L 78.0 665.1 L -4.5 630.9 L -77.4 577.4 L -130.9 504.5 L -165.1 422.0 L -189.0 337.3 L -205.0 250.0 L -203.5 159.8 L -175.6 73.7 L -125.8 -1.1 L -66.1 -66.1 L -1.1 -125.8 L 73.7 -175.6 L 159.8 -203.5 L 250.0 -205.0 L 337.3 -189.0 L 422.0 -165.1 L 504.5 -130.9 L 577.4 -77.4 L 630.9 -4.5 L 665.1 78.0 L 689.0 162.7 L 705.0 250.0 Z" fill="none" opacity="0.7" stroke="#ffffff" stroke-width="2" /><path d="M 730.0 250.0 L 728.0 345.1 L 698.7 435.9 L 646.6 515.0 L 583.8 583.8 L 515.0 646.6 L 435.9 698.7 L 345.1 728.0 L 250.0 730.0 L 157.8 713.5 L 68.5 688.2 L -18.4 651.7 L -95.1 595.1 L -151.7 518.4 L -188.2 431.5 L -213.5 342.2 L -230.0 250.0 L -228.0 154.9 L -198.7 64.1 L -146.6 -15.0 L -83.8 -83.8 L -15.0 -146.6 L 64.1 -198.7 L 154.9 -228.0 L 250.0 -230.0 L 342.2 -213.5 L 431.5 -188.2 L 518.4 -151.7 L 595.1 -95.1 L 651.7 -18.4 L 688.2 68.5 L 713.5 157.8 L 730.0 250.0 Z" fill="none" opacity="0.7" stroke="#ffd700" stroke-width="2" /><path d="M 755.0 250.0 L 752.5 350.0 L 721.8 445.4 L 667.3 528.9 L 601.4 601.4 L 528.9 667.3 L 445.4 721.8 L 350.0 752.5 L 250.0 755.0 L 152.9 738.0 L 58.9 711.3 L -32.3 672.4 L -112.7 612.7 L -172.4 532.3 L -211.3 441.1 L -238.0 347.1 L -255.0 250.0 L -252.5 150.0 L -221.8 54.6 L -167.3 -28.9 L -101.4 -101.4 L -28.9 -167.3 L 54.6 -221.8 L 150.0 -252.5 L 250.0 -255.0 L 347.1 -238.0 L 441.1 -211.3 L 532.3 -172.4 L 612.7 -112.7 L 672.4 -32.3 L 711.3 58.9 L 738.0 152.9 L 755.0 250.0 Z" fill="none" opacity="0.7" stroke="#ffffff" stroke-width="2" /></svg>