<svg xmlns="http://www.w3.org/2000/svg" width="1221" height="1229" viewBox="-10 -10 1221 1229">
<g id="pattern">
<path d="M 132 52 L 127.0 417.0 L 62.0 454.0 L 113.0 666.0 L 155.0 564.0 L 182.0 648.0 L 96.0 827.0 L 153.0 703.0 L 310.0 791.0 L 351.0 1005.0 L 0.0 1018.0 L 1014.0 1018.0 L 884.0 1005.0 L 945.0 228.0 L 833.0 257.0 L 801.0 123.0 L 781.0 259.0 L 627.0 60.0 L 579.0 179.0 L 467.0 56.0 L 562.0 227.0 L 698.0 170.0 L 718.0 293.0 L 914.0 304.0 L 840.0 460.0 L 945.0 558.0 L 829.0 614.0 L 892.0 809.0 L 605.0 754.0 L 375.0 939.0 L 348.0 744.0 L 203.0 728.0 L 264.0 609.0 L 105.0 499.0 L 265.0 415.0 L 253.0 271.0 L 386.0 286.0 L 448.0 83.0 L 322.0 251.0 L 202.0 59.0 L 168.0 433.0" stroke="#111" stroke-width="2" fill="none" stroke-linecap="round" stroke-linejoin="round" />
<path d="M 132 52 L 127.0 417.0 L 62.0 454.0 L 113.0 666.0 L 155.0 564.0 L 182.0 648.0 L 96.0 827.0 L 153.0 703.0 L 310.0 791.0 L 351.0 1005.0 L 0.0 1018.0 L 1014.0 1018.0 L 884.0 1005.0 L 945.0 228.0 L 833.0 257.0 L 801.0 123.0 L 781.0 259.0 L 627.0 60.0 L 579.0 179.0 L 467.0 56.0 L 562.0 227.0 L 698.0 170.0 L 718.0 293.0 L 914.0 304.0 L 840.0 460.0 L 945.0 558.0 L 829.0 614.0 L 892.0 809.0 L 605.0 754.0 L 375.0 939.0 L 348.0 744.0 L 203.0 728.0 L 264.0 609.0 L 105.0 499.0 L 265.0 415.0 L 253.0 271.0 L 386.0 286.0 L 448.0 83.0 L 322.0 251.0 L 202.0 59.0 L 168.0 433.0" stroke="#111" stroke-width="2" fill="none" stroke-linecap="round" stroke-linejoin="round" />
<path d="M 414 71 L 377.0 278.0 L 245.0 261.0 L 256.0 407.0 L 92.0 498.0 L 253.0 613.0 L 193.0 734.0 L 339.0 752.0 L 370.0 951.0 L 606.0 766.0 L 681.0 794.0 L 567.0 838.0 L 651.0 933.0 L 711.0 794.0 L 905.0 815.0 L 840.0 618.0 L 956.0 562.0 L 852.0 461.0 L 927.0 301.0 L 726.0 284.0 L 702.0 144.0 L 776.0 270.0 L 943.0 258.0 L 881.0 437.0 L 955.0 510.0 L 950.0 407.0 L 945.0 653.0 L 872.0 630.0 L 924.0 779.0 L 877.0 993.0 L 861.0 853.0 L 786.0 811.0 L 653.0 957.0 L 535.0 861.0 L 364.0 1003.0 L 336.0 802.0 L 178.0 744.0 L 152.0 552.0 L 124.0 617.0 L 73.0 445.0 L 221.0 400.0 L 225.0 230.0 L 348.0 252.0" stroke="#111" stroke-width="2" fill="none" stroke-linecap="round" stroke-linejoin="round" />
<path d="M 884 1003 L 377.0 1005.0 L 392.0 1001.0 L 396.0 968.0 L 431.0 964.0 L 486.0 898.0 L 486.0 962.0 L 502.0 968.0 L 536.0 873.0 L 606.0 934.0 L 609.0 971.0 L 658.0 968.0 L 676.0 930.0 L 706.0 921.0 L 709.0 866.0 L 724.0 836.0 L 764.0 844.0 L 790.0 822.0 L 848.0 853.0 L 856.0 912.0 L 848.0 960.0 L 867.0 1001.0" stroke="#111" stroke-width="2" fill="none" stroke-linecap="round" stroke-linejoin="round" />
<path d="M 678 161 L 643.0 190.0 L 586.0 220.0 L 575.0 220.0 L 544.0 200.0 L 473.0 133.0 L 463.0 111.0 L 470.0 76.0 L 475.0 73.0 L 491.0 128.0 L 525.0 152.0 L 547.0 154.0 L 575.0 190.0 L 599.0 186.0 L 615.0 169.0 L 621.0 115.0 L 616.0 70.0 L 634.0 84.0 L 630.0 119.0 L 638.0 136.0 L 654.0 151.0" stroke="#111" stroke-width="2" fill="none" stroke-linecap="round" stroke-linejoin="round" />
<path d="M 691 802 L 688.0 820.0 L 663.0 861.0 L 653.0 917.0 L 650.0 920.0 L 631.0 900.0 L 612.0 868.0 L 580.0 841.0 L 602.0 833.0 L 661.0 828.0 L 681.0 815.0" stroke="#111" stroke-width="2" fill="none" stroke-linecap="round" stroke-linejoin="round" />
<path d="M 10 13 L 10.0 993.0" stroke="#111" stroke-width="2" fill="none" stroke-linecap="round" stroke-linejoin="round" />
<path d="M 10 13 L 10.0 993.0" stroke="#111" stroke-width="2" fill="none" stroke-linecap="round" stroke-linejoin="round" />
<path d="M 139 694 L 140.0 696.0 L 130.0 705.0 L 126.0 712.0 L 126.0 722.0 L 133.0 737.0 L 134.0 746.0 L 121.0 765.0 L 120.0 764.0 L 121.0 732.0 L 120.0 731.0 L 120.0 713.0 L 118.0 695.0 L 121.0 692.0" stroke="#111" stroke-width="2" fill="none" stroke-linecap="round" stroke-linejoin="round" />
<path d="M 224 126 L 227.0 129.0 L 229.0 137.0 L 240.0 154.0 L 245.0 172.0 L 244.0 190.0 L 233.0 204.0 L 232.0 201.0 L 235.0 192.0 L 235.0 177.0 L 230.0 150.0 L 221.0 128.0" stroke="#111" stroke-width="2" fill="none" stroke-linecap="round" stroke-linejoin="round" />
<path d="M 143 291 L 145.0 317.0 L 144.0 396.0 L 141.0 401.0 L 139.0 398.0 L 141.0 292.0" stroke="#111" stroke-width="2" fill="none" stroke-linecap="round" stroke-linejoin="round" />
<path d="M 141 229 L 144.0 231.0 L 143.0 235.0 L 143.0 279.0 L 144.0 283.0 L 142.0 287.0 L 139.0 282.0 L 138.0 272.0 L 136.0 269.0 L 133.0 259.0 L 134.0 250.0 L 139.0 238.0 L 139.0 231.0" stroke="#111" stroke-width="2" fill="none" stroke-linecap="round" stroke-linejoin="round" />
<path d="M 801 146 L 804.0 151.0 L 804.0 157.0 L 808.0 169.0 L 814.0 193.0 L 814.0 197.0 L 816.0 201.0 L 816.0 205.0 L 818.0 209.0 L 818.0 213.0 L 815.0 217.0 L 814.0 214.0 L 812.0 213.0 L 811.0 200.0 L 799.0 158.0 L 799.0 149.0" stroke="#111" stroke-width="2" fill="none" stroke-linecap="round" stroke-linejoin="round" />
<path d="M 116 795 L 117.0 796.0 L 117.0 812.0 L 118.0 813.0 L 118.0 824.0 L 119.0 825.0 L 119.0 833.0 L 118.0 834.0 L 113.0 831.0 L 109.0 827.0 L 107.0 823.0 L 109.0 812.0 L 111.0 809.0 L 114.0 797.0" stroke="#111" stroke-width="2" fill="none" stroke-linecap="round" stroke-linejoin="round" />
<path d="M 230 60 L 231.0 63.0 L 223.0 78.0 L 222.0 82.0 L 220.0 84.0 L 218.0 82.0 L 216.0 74.0 L 213.0 68.0 L 213.0 65.0 L 217.0 62.0" stroke="#111" stroke-width="2" fill="none" stroke-linecap="round" stroke-linejoin="round" />
</g>
</svg>