<svg baseProfile="full" height="400px" version="1.1" viewBox="0 0 400 400" width="400px" xmlns="http://www.w3.org/2000/svg" xmlns:ev="http://www.w3.org/2001/xml-events" xmlns:xlink="http://www.w3.org/1999/xlink"><defs /><rect fill="#0a0a0a" height="400" width="400" x="0" y="0" /><path d="M 77 77 Q 77 363 363 363" fill="none" opacity="0.6" stroke="#7694d3" stroke-width="1.5" /><circle cx="77.0" cy="77.0" fill="white" opacity="0.9" r="4" /><circle cx="77.0" cy="77.0" fill="white" opacity="0.9" r="4" /><circle cx="77.0" cy="77.0" fill="white" opacity="0.9" r="4" /><circle cx="77.0" cy="77.0" fill="white" opacity="0.9" r="4" /><circle cx="77.0" cy="77.0" fill="white" opacity="0.9" r="4" /><circle cx="77.0" cy="77.0" fill="white" opacity="0.9" r="4" /><circle cx="77.0" cy="77.0" fill="white" opacity="0.9" r="4" /><circle cx="77.0" cy="77.0" fill="white" opacity="0.9" r="4" /><circle cx="77.0" cy="77.0" fill="white" opacity="0.9" r="4" /><circle cx="77.0" cy="77.0" fill="white" opacity="0.9" r="4" /><circle cx="77.0" cy="77.0" fill="white" opacity="0.9" r="4" /><circle cx="77.0" cy="77.0" fill="white" opacity="0.9" r="4" /><circle cx="77.0" cy="77.0" fill="white" opacity="0.9" r="4" /><circle cx="77.0" cy="77.0" fill="white" opacity="0.9" r="4" /><circle cx="77.0" cy="77.0" fill="white" opacity="0.9" r="4" /><circle cx="77.0" cy="363.0" fill="white" opacity="0.9" r="4" /><circle cx="77.0" cy="363.0" fill="white" opacity="0.9" r="4" /><circle cx="77.0" cy="363.0" fill="white" opacity="0.9" r="4" /><circle cx="77.0" cy="363.0" fill="white" opacity="0.9" r="4" /><circle cx="77.0" cy="363.0" fill="white" opacity="0.9" r="4" /><circle cx="77.0" cy="363.0" fill="white" opacity="0.9" r="4" /><circle cx="77.0" cy="363.0" fill="white" opacity="0.9" r="4" /><circle cx="77.0" cy="363.0" fill="white" opacity="0.9" r="4" /><circle cx="77.0" cy="363.0" fill="white" opacity="0.9" r="4" /><circle cx="77.0" cy="363.0" fill="white" opacity="0.9" r="4" /><circle cx="77.0" cy="363.0" fill="white" opacity="0.9" r="4" /><circle cx="77.0" cy="363.0" fill="white" opacity="0.9" r="4" /><circle cx="77.0" cy="363.0" fill="white" opacity="0.9" r="4" /><circle cx="77.0" cy="363.0" fill="white" opacity="0.9" r="4" /><circle cx="77.0" cy="363.0" fill="white" opacity="0.9" r="4" /><circle cx="363.0" cy="363.0" fill="white" opacity="0.9" r="4" /><circle cx="363.0" cy="363.0" fill="white" opacity="0.9" r="4" /><circle cx="363.0" cy="363.0" fill="white" opacity="0.9" r="4" /><circle cx="363.0" cy="363.0" fill="white" opacity="0.9" r="4" /><circle cx="363.0" cy="363.0" fill="white" opacity="0.9" r="4" /><circle cx="363.0" cy="363.0" fill="white" opacity="0.9" r="4" /><circle cx="363.0" cy="363.0" fill="white" opacity="0.9" r="4" /><circle cx="363.0" cy="363.0" fill="white" opacity="0.9" r="4" /><circle cx="363.0" cy="363.0" fill="white" opacity="0.9" r="4" /><circle cx="363.0" cy="363.0" fill="white" opacity="0.9" r="4" /><circle cx="363.0" cy="363.0" fill="white" opacity="0.9" r="4" /><circle cx="363.0" cy="363.0" fill="white" opacity="0.9" r="4" /><circle cx="363.0" cy="363.0" fill="white" opacity="0.9" r="4" /><circle cx="363.0" cy="363.0" fill="white" opacity="0.9" r="4" /><circle cx="363.0" cy="363.0" fill="white" opacity="0.9" r="4" /><circle cx="364.0" cy="320.0" fill="#6895f2" opacity="0.9" r="3" /><circle cx="364.0" cy="240.0" fill="#6895f2" opacity="0.9" r="3" /><circle cx="364.0" cy="160.0" fill="#6895f2" opacity="0.9" r="3" /><circle cx="364.0" cy="280.0" fill="#6895f2" opacity="0.9" r="3" /><circle cx="364.0" cy="200.0" fill="#6895f2" opacity="0.9" r="3" /><circle cx="364.0" cy="120.0" fill="#6895f2" opacity="0.9" r="3" /><circle cx="282.0" cy="362.0" fill="#6895f2" opacity="0.9" r="3" /><circle cx="202.0" cy="362.0" fill="#6895f2" opacity="0.9" r="3" /><circle cx="122.0" cy="362.0" fill="#6895f2" opacity="0.9" r="3" /><circle cx="363.0" cy="80.0" fill="#6895f2" opacity="0.9" r="3" /><circle cx="322.0" cy="362.0" fill="#6895f2" opacity="0.9" r="3" /><circle cx="242.0" cy="362.0" fill="#6895f2" opacity="0.9" r="3" /><circle cx="162.0" cy="362.0" fill="#6895f2" opacity="0.9" r="3" /><circle cx="280.0" cy="76.0" fill="#6895f2" opacity="0.9" r="3" /><circle cx="200.0" cy="76.0" fill="#6895f2" opacity="0.9" r="3" /><circle cx="120.0" cy="76.0" fill="#6895f2" opacity="0.9" r="3" /><circle cx="320.0" cy="76.0" fill="#6895f2" opacity="0.9" r="3" /><circle cx="240.0" cy="76.0" fill="#6895f2" opacity="0.9" r="3" /><circle cx="160.0" cy="76.0" fill="#6895f2" opacity="0.9" r="3" /><circle cx="328.0" cy="319.0" fill="#6895f2" opacity="0.9" r="3" /><circle cx="248.0" cy="319.0" fill="#6895f2" opacity="0.9" r="3" /><circle cx="168.0" cy="319.0" fill="#6895f2" opacity="0.9" r="3" /><circle cx="328.0" cy="239.0" fill="#6895f2" opacity="0.9" r="3" /><circle cx="248.0" cy="239.0" fill="#6895f2" opacity="0.9" r="3" /><circle cx="168.0" cy="239.0" fill="#6895f2" opacity="0.9" r="3" /><circle cx="328.0" cy="159.0" fill="#6895f2" opacity="0.9" r="3" /><circle cx="248.0" cy="159.0" fill="#6895f2" opacity="0.9" r="3" /><circle cx="168.0" cy="159.0" fill="#6895f2" opacity="0.9" r="3" /><circle cx="288.0" cy="279.0" fill="#6895f2" opacity="0.9" r="3" /><circle cx="208.0" cy="279.0" fill="#6895f2" opacity="0.9" r="3" /><circle cx="128.0" cy="279.0" fill="#6895f2" opacity="0.9" r="3" /><circle cx="288.0" cy="199.0" fill="#6895f2" opacity="0.9" r="3" /><circle cx="208.0" cy="199.0" fill="#6895f2" opacity="0.9" r="3" /><circle cx="128.0" cy="199.0" fill="#6895f2" opacity="0.9" r="3" /><circle cx="288.0" cy="119.0" fill="#6895f2" opacity="0.9" r="3" /><circle cx="208.0" cy="119.0" fill="#6895f2" opacity="0.9" r="3" /><circle cx="128.0" cy="119.0" fill="#6895f2" opacity="0.9" r="3" /><circle cx="328.0" cy="279.0" fill="#6895f2" opacity="0.9" r="3" /><circle cx="248.0" cy="279.0" fill="#6895f2" opacity="0.9" r="3" /><circle cx="168.0" cy="279.0" fill="#6895f2" opacity="0.9" r="3" /><circle cx="328.0" cy="199.0" fill="#6895f2" opacity="0.9" r="3" /><circle cx="248.0" cy="199.0" fill="#6895f2" opacity="0.9" r="3" /><path d="M 364.0 320.0 Q 346.2 312.0 328.0 319.0" fill="none" opacity="0.7" stroke="#000001" stroke-width="1.5" /><path d="M 364.0 240.0 Q 346.2 232.0 328.0 239.0" fill="none" opacity="0.7" stroke="#000001" stroke-width="1.5" /><path d="M 364.0 160.0 Q 346.2 152.0 328.0 159.0" fill="none" opacity="0.7" stroke="#000001" stroke-width="1.5" /><path d="M 364.0 280.0 Q 346.2 272.0 328.0 279.0" fill="none" opacity="0.7" stroke="#000001" stroke-width="1.5" /><path d="M 364.0 200.0 Q 346.2 192.0 328.0 199.0" fill="none" opacity="0.7" stroke="#000001" stroke-width="1.5" /></svg>