<svg baseProfile="full" height="400px" version="1.1" viewBox="0 0 400 400" width="400px" xmlns="http://www.w3.org/2000/svg" xmlns:ev="http://www.w3.org/2001/xml-events" xmlns:xlink="http://www.w3.org/1999/xlink"><defs /><rect fill="#0a0a0a" height="400" width="400" x="0" y="0" /><path d="M 174 155 Q 184 180 156 201" fill="none" opacity="0.6" stroke="#000000" stroke-width="1.5" /><path d="M 175 204 Q 182 247 191 223" fill="none" opacity="0.6" stroke="#000000" stroke-width="1.5" /><path d="M 225 244 Q 216 220 244 199" fill="none" opacity="0.6" stroke="#000000" stroke-width="1.5" /><path d="M 224 196 Q 223 162 190 177" fill="none" opacity="0.6" stroke="#000000" stroke-width="1.5" /><circle cx="174.0" cy="155.0" fill="white" opacity="0.9" r="4" /><circle cx="174.0" cy="155.0" fill="white" opacity="0.9" r="4" /><circle cx="184.0" cy="180.0" fill="white" opacity="0.9" r="4" /><circle cx="156.0" cy="201.0" fill="white" opacity="0.9" r="4" /><circle cx="175.0" cy="204.0" fill="white" opacity="0.9" r="4" /><circle cx="175.0" cy="204.0" fill="white" opacity="0.9" r="4" /><circle cx="182.0" cy="247.0" fill="white" opacity="0.9" r="4" /><circle cx="191.0" cy="223.0" fill="white" opacity="0.9" r="4" /><circle cx="225.0" cy="244.0" fill="white" opacity="0.9" r="4" /><circle cx="216.0" cy="220.0" fill="white" opacity="0.9" r="4" /><circle cx="216.0" cy="220.0" fill="white" opacity="0.9" r="4" /><circle cx="244.0" cy="199.0" fill="white" opacity="0.9" r="4" /><circle cx="224.0" cy="196.0" fill="white" opacity="0.9" r="4" /><circle cx="223.0" cy="162.0" fill="white" opacity="0.9" r="4" /><circle cx="176.0" cy="271.0" fill="#c2c8df" opacity="0.9" r="3" /><circle cx="286.0" cy="153.0" fill="#c2c8df" opacity="0.9" r="3" /><circle cx="138.0" cy="154.0" fill="#c2c8df" opacity="0.9" r="3" /><circle cx="227.0" cy="268.0" fill="#c2c8df" opacity="0.9" r="3" /><circle cx="135.0" cy="238.0" fill="#c2c8df" opacity="0.9" r="3" /><circle cx="127.0" cy="206.0" fill="#c2c8df" opacity="0.9" r="3" /><circle cx="272.0" cy="238.0" fill="#c2c8df" opacity="0.9" r="3" /><circle cx="188.0" cy="123.0" fill="#c2c8df" opacity="0.9" r="3" /><circle cx="255.0" cy="133.0" fill="#c2c8df" opacity="0.9" r="3" /><circle cx="283.0" cy="211.0" fill="#c2c8df" opacity="0.9" r="3" /><circle cx="242.0" cy="107.0" fill="#c2c8df" opacity="0.9" r="3" /><circle cx="279.0" cy="179.0" fill="#c2c8df" opacity="0.9" r="3" /><circle cx="153.0" cy="258.0" fill="#c2c8df" opacity="0.9" r="3" /><circle cx="201.0" cy="272.0" fill="#c2c8df" opacity="0.9" r="3" /><circle cx="207.0" cy="99.0" fill="#c2c8df" opacity="0.9" r="3" /><circle cx="253.0" cy="260.0" fill="#c2c8df" opacity="0.9" r="3" /><circle cx="247.0" cy="168.0" fill="#c2c8df" opacity="0.9" r="3" /><circle cx="216.0" cy="179.0" fill="#c2c8df" opacity="0.9" r="3" /><circle cx="253.0" cy="220.0" fill="#c2c8df" opacity="0.9" r="3" /><circle cx="156.0" cy="224.0" fill="#c2c8df" opacity="0.9" r="3" /><path d="M 174.0 155.0 Q 172.0 170.3 184.0 180.0" fill="none" opacity="0.7" stroke="#000000" stroke-width="1.5" /><path d="M 174.0 155.0 Q 156.2 147.0 138.0 154.0" fill="none" opacity="0.7" stroke="#abefad" stroke-width="1.5" /><path d="M 174.0 155.0 Q 187.9 142.0 188.0 123.0" fill="none" opacity="0.7" stroke="#abefad" stroke-width="1.5" /><path d="M 174.0 155.0 Q 172.0 170.3 184.0 180.0" fill="none" opacity="0.7" stroke="#000000" stroke-width="1.5" /><path d="M 174.0 155.0 Q 156.2 147.0 138.0 154.0" fill="none" opacity="0.7" stroke="#abefad" stroke-width="1.5" /><path d="M 174.0 155.0 Q 187.9 142.0 188.0 123.0" fill="none" opacity="0.7" stroke="#abefad" stroke-width="1.5" /><path d="M 184.0 180.0 Q 165.5 184.5 156.0 201.0" fill="none" opacity="0.7" stroke="#000000" stroke-width="1.5" /><path d="M 184.0 180.0 Q 172.5 189.4 175.0 204.0" fill="none" opacity="0.7" stroke="#000000" stroke-width="1.5" /><path d="M 184.0 180.0 Q 172.5 189.4 175.0 204.0" fill="none" opacity="0.7" stroke="#000000" stroke-width="1.5" /><path d="M 184.0 180.0 Q 200.2 187.0 216.0 179.0" fill="none" opacity="0.7" stroke="#abefad" stroke-width="1.5" /><path d="M 156.0 201.0 Q 164.3 209.9 175.0 204.0" fill="none" opacity="0.7" stroke="#000000" stroke-width="1.5" /><path d="M 156.0 201.0 Q 164.3 209.9 175.0 204.0" fill="none" opacity="0.7" stroke="#000000" stroke-width="1.5" /><path d="M 156.0 201.0 Q 140.2 196.1 127.0 206.0" fill="none" opacity="0.7" stroke="#abefad" stroke-width="1.5" /><path d="M 156.0 201.0 Q 148.5 212.5 156.0 224.0" fill="none" opacity="0.7" stroke="#abefad" stroke-width="1.5" /><path d="M 175.0 204.0 Q 177.3 218.3 191.0 223.0" fill="none" opacity="0.7" stroke="#000000" stroke-width="1.5" /><path d="M 175.0 204.0 Q 160.1 208.8 156.0 224.0" fill="none" opacity="0.7" stroke="#abefad" stroke-width="1.5" /><path d="M 175.0 204.0 Q 177.3 218.3 191.0 223.0" fill="none" opacity="0.7" stroke="#000000" stroke-width="1.5" /><path d="M 175.0 204.0 Q 160.1 208.8 156.0 224.0" fill="none" opacity="0.7" stroke="#abefad" stroke-width="1.5" /><path d="M 182.0 247.0 Q 193.5 237.6 191.0 223.0" fill="none" opacity="0.7" stroke="#000000" stroke-width="1.5" /><path d="M 182.0 247.0 Q 171.7 257.2 176.0 271.0" fill="none" opacity="0.7" stroke="#abefad" stroke-width="1.5" /><path d="M 182.0 247.0 Q 164.8 245.5 153.0 258.0" fill="none" opacity="0.7" stroke="#abefad" stroke-width="1.5" /><path d="M 182.0 247.0 Q 185.5 264.0 201.0 272.0" fill="none" opacity="0.7" stroke="#abefad" stroke-width="1.5" /><path d="M 182.0 247.0 Q 174.0 229.9 156.0 224.0" fill="none" opacity="0.7" stroke="#abefad" stroke-width="1.5" /><path d="M 191.0 223.0 Q 204.4 228.9 216.0 220.0" fill="none" opacity="0.7" stroke="#000000" stroke-width="1.5" /><path d="M 191.0 223.0 Q 204.4 228.9 216.0 220.0" fill="none" opacity="0.7" stroke="#000000" stroke-width="1.5" /><path d="M 191.0 223.0 Q 173.3 216.0 156.0 224.0" fill="none" opacity="0.7" stroke="#abefad" stroke-width="1.5" /><path d="M 225.0 244.0 Q 227.5 229.4 216.0 220.0" fill="none" opacity="0.7" stroke="#000000" stroke-width="1.5" /><path d="M 225.0 244.0 Q 227.5 229.4 216.0 220.0" fill="none" opacity="0.7" stroke="#000000" stroke-width="1.5" /><path d="M 225.0 244.0 Q 218.5 256.6 227.0 268.0" fill="none" opacity="0.7" stroke="#abefad" stroke-width="1.5" /><path d="M 225.0 244.0 Q 207.3 253.1 201.0 272.0" fill="none" opacity="0.7" stroke="#abefad" stroke-width="1.5" /><path d="M 225.0 244.0 Q 235.3 258.5 253.0 260.0" fill="none" opacity="0.7" stroke="#abefad" stroke-width="1.5" /><path d="M 225.0 244.0 Q 243.9 237.7 253.0 220.0" fill="none" opacity="0.7" stroke="#abefad" stroke-width="1.5" /><path d="M 216.0 220.0 Q 234.5 215.5 244.0 199.0" fill="none" opacity="0.7" stroke="#000000" stroke-width="1.5" /><path d="M 216.0 220.0 Q 227.1 210.4 224.0 196.0" fill="none" opacity="0.7" stroke="#000000" stroke-width="1.5" /><path d="M 216.0 220.0 Q 234.5 227.5 253.0 220.0" fill="none" opacity="0.7" stroke="#abefad" stroke-width="1.5" /><path d="M 216.0 220.0 Q 234.5 215.5 244.0 199.0" fill="none" opacity="0.7" stroke="#000000" stroke-width="1.5" /><path d="M 216.0 220.0 Q 227.1 210.4 224.0 196.0" fill="none" opacity="0.7" stroke="#000000" stroke-width="1.5" /><path d="M 216.0 220.0 Q 234.5 227.5 253.0 220.0" fill="none" opacity="0.7" stroke="#abefad" stroke-width="1.5" /><path d="M 244.0 199.0 Q 235.1 190.1 224.0 196.0" fill="none" opacity="0.7" stroke="#000000" stroke-width="1.5" /><path d="M 244.0 199.0 Q 253.0 184.2 247.0 168.0" fill="none" opacity="0.7" stroke="#abefad" stroke-width="1.5" /><path d="M 244.0 199.0 Q 234.4 182.9 216.0 179.0" fill="none" opacity="0.7" stroke="#abefad" stroke-width="1.5" /><path d="M 244.0 199.0 Q 241.6 212.5 253.0 220.0" fill="none" opacity="0.7" stroke="#abefad" stroke-width="1.5" /><path d="M 224.0 196.0 Q 231.0 178.8 223.0 162.0" fill="none" opacity="0.7" stroke="#000000" stroke-width="1.5" /><path d="M 224.0 196.0 Q 241.3 186.8 247.0 168.0" fill="none" opacity="0.7" stroke="#abefad" stroke-width="1.5" /><path d="M 224.0 196.0 Q 226.8 184.3 216.0 179.0" fill="none" opacity="0.7" stroke="#abefad" stroke-width="1.5" /><path d="M 223.0 162.0 Q 233.2 172.3 247.0 168.0" fill="none" opacity="0.7" stroke="#abefad" stroke-width="1.5" /><path d="M 223.0 162.0 Q 212.6 167.6 216.0 179.0" fill="none" opacity="0.7" stroke="#abefad" stroke-width="1.5" /><path d="M 176.0 271.0 Q 168.2 258.0 153.0 258.0" fill="none" opacity="0.7" stroke="#abefad" stroke-width="1.5" /><path d="M 176.0 271.0 Q 188.2 279.0 201.0 272.0" fill="none" opacity="0.7" stroke="#abefad" stroke-width="1.5" /><path d="M 286.0 153.0 Q 274.6 136.7 255.0 133.0" fill="none" opacity="0.7" stroke="#abefad" stroke-width="1.5" /><path d="M 286.0 153.0 Q 275.3 164.1 279.0 179.0" fill="none" opacity="0.7" stroke="#abefad" stroke-width="1.5" /><path d="M 227.0 268.0 Q 212.9 262.6 201.0 272.0" fill="none" opacity="0.7" stroke="#abefad" stroke-width="1.5" /><path d="M 227.0 268.0 Q 242.2 271.2 253.0 260.0" fill="none" opacity="0.7" stroke="#abefad" stroke-width="1.5" /><path d="M 135.0 238.0 Q 138.3 220.2 127.0 206.0" fill="none" opacity="0.7" stroke="#abefad" stroke-width="1.5" /><path d="M 135.0 238.0 Q 138.4 253.0 153.0 258.0" fill="none" opacity="0.7" stroke="#abefad" stroke-width="1.5" /><path d="M 135.0 238.0 Q 149.7 237.2 156.0 224.0" fill="none" opacity="0.7" stroke="#abefad" stroke-width="1.5" /><path d="M 127.0 206.0 Q 137.5 221.4 156.0 224.0" fill="none" opacity="0.7" stroke="#abefad" stroke-width="1.5" /><path d="M 272.0 238.0 Q 284.4 227.3 283.0 211.0" fill="none" opacity="0.7" stroke="#abefad" stroke-width="1.5" /><path d="M 272.0 238.0 Q 256.8 244.1 253.0 260.0" fill="none" opacity="0.7" stroke="#abefad" stroke-width="1.5" /><path d="M 272.0 238.0 Q 267.7 223.6 253.0 220.0" fill="none" opacity="0.7" stroke="#abefad" stroke-width="1.5" /><path d="M 188.0 123.0 Q 203.4 115.7 207.0 99.0" fill="none" opacity="0.7" stroke="#abefad" stroke-width="1.5" /><path d="M 255.0 133.0 Q 255.2 116.6 242.0 107.0" fill="none" opacity="0.7" stroke="#abefad" stroke-width="1.5" /><path d="M 255.0 133.0 Q 243.7 148.8 247.0 168.0" fill="none" opacity="0.7" stroke="#abefad" stroke-width="1.5" /><path d="M 283.0 211.0 Q 288.4 194.1 279.0 179.0" fill="none" opacity="0.7" stroke="#abefad" stroke-width="1.5" /><path d="M 283.0 211.0 Q 265.8 208.3 253.0 220.0" fill="none" opacity="0.7" stroke="#abefad" stroke-width="1.5" /><path d="M 242.0 107.0 Q 226.2 95.7 207.0 99.0" fill="none" opacity="0.7" stroke="#abefad" stroke-width="1.5" /><path d="M 279.0 179.0 Q 265.4 166.4 247.0 168.0" fill="none" opacity="0.7" stroke="#abefad" stroke-width="1.5" /><path d="M 153.0 258.0 Q 162.0 241.7 156.0 224.0" fill="none" opacity="0.7" stroke="#abefad" stroke-width="1.5" /><path d="M 247.0 168.0 Q 229.0 166.4 216.0 179.0" fill="none" opacity="0.7" stroke="#abefad" stroke-width="1.5" /></svg>