<svg xmlns="http://www.w3.org/2000/svg" width="920" height="920" viewBox="-10 -10 920 920">
<rect x="0" y="0" width="900" height="900" fill="#000"  />
<g id="dot-grid" fill="#888">
<circle cx="144.29" cy="787.46" r="8.06" fill="#888" />
<circle cx="144.36" cy="686.66" r="8.06" fill="#888" />
<circle cx="144.43" cy="585.86" r="8.06" fill="#888" />
<circle cx="144.50" cy="485.06" r="8.06" fill="#888" />
<circle cx="144.57" cy="384.26" r="8.06" fill="#888" />
<circle cx="144.64" cy="283.46" r="8.06" fill="#888" />
<circle cx="144.71" cy="182.66" r="8.06" fill="#888" />
<circle cx="144.78" cy="81.86" r="8.06" fill="#888" />
<circle cx="231.62" cy="737.13" r="8.06" fill="#888" />
<circle cx="231.69" cy="636.33" r="8.06" fill="#888" />
<circle cx="231.76" cy="535.53" r="8.06" fill="#888" />
<circle cx="231.83" cy="434.73" r="8.06" fill="#888" />
<circle cx="231.90" cy="333.93" r="8.06" fill="#888" />
<circle cx="231.97" cy="233.13" r="8.06" fill="#888" />
<circle cx="232.04" cy="132.33" r="8.06" fill="#888" />
<circle cx="232.12" cy="31.53" r="8.06" fill="#888" />
<circle cx="318.88" cy="787.59" r="8.06" fill="#888" />
<circle cx="318.95" cy="686.79" r="8.06" fill="#888" />
<circle cx="319.02" cy="585.99" r="8.06" fill="#888" />
<circle cx="319.09" cy="485.19" r="8.06" fill="#888" />
<circle cx="319.16" cy="384.39" r="8.06" fill="#888" />
<circle cx="319.23" cy="283.59" r="8.06" fill="#888" />
<circle cx="319.30" cy="182.79" r="8.06" fill="#888" />
<circle cx="319.37" cy="81.99" r="8.06" fill="#888" />
<circle cx="406.21" cy="737.25" r="8.06" fill="#888" />
<circle cx="406.28" cy="636.45" r="8.06" fill="#888" />
<circle cx="406.35" cy="535.65" r="8.06" fill="#888" />
<circle cx="406.42" cy="434.85" r="8.06" fill="#888" />
<circle cx="406.49" cy="334.05" r="8.06" fill="#888" />
<circle cx="406.56" cy="233.25" r="8.06" fill="#888" />
<circle cx="406.63" cy="132.45" r="8.06" fill="#888" />
<circle cx="406.71" cy="31.65" r="8.06" fill="#888" />
<circle cx="493.47" cy="787.71" r="8.06" fill="#888" />
<circle cx="493.54" cy="686.91" r="8.06" fill="#888" />
<circle cx="493.61" cy="586.11" r="8.06" fill="#888" />
<circle cx="493.68" cy="485.31" r="8.06" fill="#888" />
<circle cx="493.75" cy="384.51" r="8.06" fill="#888" />
<circle cx="493.82" cy="283.71" r="8.06" fill="#888" />
<circle cx="493.89" cy="182.91" r="8.06" fill="#888" />
<circle cx="493.97" cy="82.11" r="8.06" fill="#888" />
<circle cx="580.80" cy="737.37" r="8.06" fill="#888" />
<circle cx="580.87" cy="636.57" r="8.06" fill="#888" />
<circle cx="580.94" cy="535.77" r="8.06" fill="#888" />
<circle cx="581.01" cy="434.97" r="8.06" fill="#888" />
<circle cx="581.08" cy="334.17" r="8.06" fill="#888" />
<circle cx="581.15" cy="233.37" r="8.06" fill="#888" />
<circle cx="581.23" cy="132.57" r="8.06" fill="#888" />
<circle cx="581.30" cy="31.77" r="8.06" fill="#888" />
<circle cx="668.06" cy="787.83" r="8.06" fill="#888" />
<circle cx="668.13" cy="687.03" r="8.06" fill="#888" />
<circle cx="668.20" cy="586.23" r="8.06" fill="#888" />
<circle cx="668.27" cy="485.43" r="8.06" fill="#888" />
<circle cx="668.34" cy="384.63" r="8.06" fill="#888" />
<circle cx="668.41" cy="283.83" r="8.06" fill="#888" />
<circle cx="668.49" cy="183.03" r="8.06" fill="#888" />
<circle cx="668.56" cy="82.23" r="8.06" fill="#888" />
<circle cx="755.39" cy="737.50" r="8.06" fill="#888" />
<circle cx="755.46" cy="636.70" r="8.06" fill="#888" />
<circle cx="755.53" cy="535.90" r="8.06" fill="#888" />
<circle cx="755.60" cy="435.10" r="8.06" fill="#888" />
<circle cx="755.67" cy="334.30" r="8.06" fill="#888" />
<circle cx="755.74" cy="233.50" r="8.06" fill="#888" />
<circle cx="755.82" cy="132.70" r="8.06" fill="#888" />
<circle cx="755.89" cy="31.90" r="8.06" fill="#888" />
</g>
<g id="kolam">
<path d="M 493.68 485.31 L 493.47 787.71" stroke="#fff" stroke-width="3" fill="none" stroke-linecap="round" stroke-linejoin="round" />
<path d="M 668.56 82.23 L 668.34 384.63" stroke="#fff" stroke-width="3" fill="none" stroke-linecap="round" stroke-linejoin="round" />
<path d="M 232.04 132.33 L 231.90 333.93" stroke="#fff" stroke-width="3" fill="none" stroke-linecap="round" stroke-linejoin="round" />
</g>
</svg>