<svg xmlns="http://www.w3.org/2000/svg" width="820" height="820" viewBox="-10 -10 820 820">
<rect x="0" y="0" width="800" height="800" fill="#000" />
<g id="dot-grid" fill="#888">
<circle cx="64.00" cy="128.41" r="7.17" fill="#888" />
<circle cx="153.60" cy="128.41" r="7.17" fill="#888" />
<circle cx="243.20" cy="128.41" r="7.17" fill="#888" />
<circle cx="332.80" cy="128.41" r="7.17" fill="#888" />
<circle cx="422.40" cy="128.41" r="7.17" fill="#888" />
<circle cx="512.00" cy="128.41" r="7.17" fill="#888" />
<circle cx="601.60" cy="128.41" r="7.17" fill="#888" />
<circle cx="691.20" cy="128.41" r="7.17" fill="#888" />
<circle cx="108.80" cy="206.01" r="7.17" fill="#888" />
<circle cx="198.40" cy="206.01" r="7.17" fill="#888" />
<circle cx="288.00" cy="206.01" r="7.17" fill="#888" />
<circle cx="377.60" cy="206.01" r="7.17" fill="#888" />
<circle cx="467.20" cy="206.01" r="7.17" fill="#888" />
<circle cx="556.80" cy="206.01" r="7.17" fill="#888" />
<circle cx="646.40" cy="206.01" r="7.17" fill="#888" />
<circle cx="736.00" cy="206.01" r="7.17" fill="#888" />
<circle cx="64.00" cy="283.61" r="7.17" fill="#888" />
<circle cx="153.60" cy="283.61" r="7.17" fill="#888" />
<circle cx="243.20" cy="283.61" r="7.17" fill="#888" />
<circle cx="332.80" cy="283.61" r="7.17" fill="#888" />
<circle cx="422.40" cy="283.61" r="7.17" fill="#888" />
<circle cx="512.00" cy="283.61" r="7.17" fill="#888" />
<circle cx="601.60" cy="283.61" r="7.17" fill="#888" />
<circle cx="691.20" cy="283.61" r="7.17" fill="#888" />
<circle cx="108.80" cy="361.20" r="7.17" fill="#888" />
<circle cx="198.40" cy="361.20" r="7.17" fill="#888" />
<circle cx="288.00" cy="361.20" r="7.17" fill="#888" />
<circle cx="377.60" cy="361.20" r="7.17" fill="#888" />
<circle cx="467.20" cy="361.20" r="7.17" fill="#888" />
<circle cx="556.80" cy="361.20" r="7.17" fill="#888" />
<circle cx="646.40" cy="361.20" r="7.17" fill="#888" />
<circle cx="736.00" cy="361.20" r="7.17" fill="#888" />
<circle cx="64.00" cy="438.80" r="7.17" fill="#888" />
<circle cx="153.60" cy="438.80" r="7.17" fill="#888" />
<circle cx="243.20" cy="438.80" r="7.17" fill="#888" />
<circle cx="332.80" cy="438.80" r="7.17" fill="#888" />
<circle cx="422.40" cy="438.80" r="7.17" fill="#888" />
<circle cx="512.00" cy="438.80" r="7.17" fill="#888" />
<circle cx="601.60" cy="438.80" r="7.17" fill="#888" />
<circle cx="691.20" cy="438.80" r="7.17" fill="#888" />
<circle cx="108.80" cy="516.39" r="7.17" fill="#888" />
<circle cx="198.40" cy="516.39" r="7.17" fill="#888" />
<circle cx="288.00" cy="516.39" r="7.17" fill="#888" />
<circle cx="377.60" cy="516.39" r="7.17" fill="#888" />
<circle cx="467.20" cy="516.39" r="7.17" fill="#888" />
<circle cx="556.80" cy="516.39" r="7.17" fill="#888" />
<circle cx="646.40" cy="516.39" r="7.17" fill="#888" />
<circle cx="736.00" cy="516.39" r="7.17" fill="#888" />
<circle cx="64.00" cy="593.99" r="7.17" fill="#888" />
<circle cx="153.60" cy="593.99" r="7.17" fill="#888" />
<circle cx="243.20" cy="593.99" r="7.17" fill="#888" />
<circle cx="332.80" cy="593.99" r="7.17" fill="#888" />
<circle cx="422.40" cy="593.99" r="7.17" fill="#888" />
<circle cx="512.00" cy="593.99" r="7.17" fill="#888" />
<circle cx="601.60" cy="593.99" r="7.17" fill="#888" />
<circle cx="691.20" cy="593.99" r="7.17" fill="#888" />
<circle cx="108.80" cy="671.59" r="7.17" fill="#888" />
<circle cx="198.40" cy="671.59" r="7.17" fill="#888" />
<circle cx="288.00" cy="671.59" r="7.17" fill="#888" />
<circle cx="377.60" cy="671.59" r="7.17" fill="#888" />
<circle cx="467.20" cy="671.59" r="7.17" fill="#888" />
<circle cx="556.80" cy="671.59" r="7.17" fill="#888" />
<circle cx="646.40" cy="671.59" r="7.17" fill="#888" />
<circle cx="736.00" cy="671.59" r="7.17" fill="#888" />
</g>
<g id="kolam">
<path d="M 64.00 128.41 L 153.60 128.41 L 243.20 128.41 L 332.80 128.41 L 422.40 128.41 L 512.00 128.41 L 601.60 128.41 L 691.20 128.41 L 736.00 206.01 L 646.40 206.01 L 556.80 206.01 L 467.20 206.01 L 377.60 206.01 L 288.00 206.01 L 198.40 206.01 L 108.80 206.01 L 64.00 283.61 L 153.60 283.61 L 243.20 283.61 L 332.80 283.61 L 422.40 283.61 L 512.00 283.61 L 601.60 283.61 L 691.20 283.61 L 736.00 361.20 L 646.40 361.20 L 556.80 361.20 L 467.20 361.20 L 377.60 361.20 L 288.00 361.20 L 198.40 361.20 L 108.80 361.20 L 64.00 438.80 L 153.60 438.80 L 243.20 438.80 L 332.80 438.80 L 422.40 438.80 L 512.00 438.80 L 601.60 438.80 L 691.20 438.80 L 736.00 516.39 L 646.40 516.39 L 556.80 516.39 L 467.20 516.39 L 377.60 516.39 L 288.00 516.39 L 198.40 516.39 L 108.80 516.39 L 64.00 593.99 L 153.60 593.99 L 243.20 593.99 L 332.80 593.99 L 422.40 593.99 L 512.00 593.99 L 601.60 593.99 L 691.20 593.99 L 736.00 671.59 L 646.40 671.59 L 556.80 671.59 L 467.20 671.59 L 377.60 671.59 L 288.00 671.59 L 198.40 671.59 L 108.80 671.59" stroke="#fff" stroke-width="3" fill="none" stroke-linecap="round" stroke-linejoin="round" />
</g>
</svg>